# AST/ASF file generated using VICON BodyLanguage
# -----------------------------------------------
:version 1.10
:name VICON
:units
  mass 1.0
  length 0.45
  angle deg
:documentation
   .ast/.asf automatically generated from VICON data using
   VICON BodyBuilder and BodyLanguage model FoxedUp or BRILLIANT.MOD
:root
   order TX TY TZ RX RY RZ
   axis XYZ
   position 0 0 0  
   orientation 0 0 0 
:bonedata
  begin
     id 1 
     name lhipjoint
     direction 0.521689 -0.742065 0.420928 
     length 2.47002 
     axis 0 0 0  XYZ
  end
  begin
     id 2 
     name lfemur
     direction 0.34202 -0.939693 0  
     length 7.24654  
     axis 0 0 20  XYZ
    dof rx ry rz
    limits (-160.0 20.0)
           (-70.0 70.0)
           (-60.0 70.0)
  end
  begin
     id 3 
     name ltibia
     direction 0.34202 -0.939693 0   
     length 8.04849   
     axis 0 0 20   XYZ
    dof rx
    limits (-10.0 170.0)
  end
  begin
     id 4 
     name lfoot
     direction 0.0745411 -0.2048 0.975961   
     length 1.72367   
     axis -90 7.62852e-016 20   XYZ
    dof rx rz
    limits (-45.0 90.0)
           (-70.0 20.0)
  end
  begin
     id 5 
     name ltoes
     direction 1.53556e-011 -4.21901e-011 1   
     length 0.87311   
     axis -90 7.62852e-016 20   XYZ
    dof rx
    limits (-90.0 20.0)
  end
  begin
     id 6 
     name rhipjoint
     direction -0.52849 -0.738415 0.418857   
     length 2.48223  
     axis 0 0 0  XYZ 
  end
  begin
     id 7 
     name rfemur
     direction -0.34202 -0.939693 0   
     length 7.15571   
     axis 0 0 -20   XYZ
    dof rx ry rz
    limits (-160.0 20.0)
           (-70.0 70.0)
           (-70.0 60.0)
  end
  begin
     id 8 
     name rtibia
     direction -0.34202 -0.939693 0   
     length 7.81659   
     axis 0 0 -20   XYZ
    dof rx
    limits (-10.0 170.0)
 end
 begin
     id 9 
     name rfoot
     direction -0.0917348 -0.252039 0.963359   
     length 1.84382  
     axis -90 -7.62852e-016 -20   XYZ
    dof rx rz
    limits (-45.0 90.0)
           (-20.0 70.0)
  end
  begin
     id 10 
     name rtoes
     direction -1.53551e-011 -4.21879e-011 1   
     length 0.927771   
     axis -90 -7.62852e-016 -20   XYZ
    dof rx
    limits (-90.0 20.0)
  end
  begin
     id 11 
     name lowerback
     direction 0.00583058 0.999822 0.0179296   
     length 2.1429   
     axis 0 0 0   XYZ
    dof rx ry rz
    limits (-20.0 45.0)
           (-30.0 30.0)
           (-30.0 30.0)
  end
  begin
     id 12 
     name upperback
     direction -0.0137999 0.999752 -0.0175071   
     length 2.14252   
     axis 0 0 0   XYZ
    dof rx ry rz
    limits (-20.0 45.0)
           (-30.0 30.0)
           (-30.0 30.0)
  end
  begin
     id 13 
     name thorax
     direction -0.0158036 0.99955 -0.0254909   
     length 2.1383   
     axis 0 0 0   XYZ
    dof rx ry rz
    limits (-20.0 45.0)
           (-30.0 30.0)
           (-30.0 30.0)
  end
  begin
     id 14 
     name lowerneck
     direction -0.0101179 0.999403 -0.0330262   
     length 1.65808   
     axis 0 0 0   XYZ
    dof rx ry rz
    limits (-20.0 45.0)
           (-30.0 30.0)
           (-30.0 30.0)
  end
  begin
     id 15 
     name upperneck
     direction 0.0497734 0.995978 -0.074501   
     length 1.5897   
     axis 0 0 0   XYZ
    dof rx ry rz
    limits (-20.0 45.0)
           (-30.0 30.0)
           (-30.0 30.0)
  end
  begin
     id 16
     name head
     direction 0.0189524 0.999519 -0.0245438  
     length 1.74024  
     axis 0 0 0   XYZ
    dof rx ry rz
    limits (-20.0 45.0)
           (-30.0 30.0)
           (-30.0 30.0)
  end
  begin
     id 17 
     name lclavicle
     direction 0.945604 0.324422 0.0241537  
     length 3.59089  
     axis 0 0 0   XYZ
    dof ry rz
    limits (-20.0 10.0)
           (0.0 20.0)
  end
  begin
     id 18 
     name lhumerus
     direction 1 -4.48964e-011 -2.63524e-027   
     length 5.2391   
     axis 180 -30 -90   XYZ
    dof rx ry rz
    limits (-60.0 90.0)
           (-90.0 90.0)
           (-90.0 90.0)
  end
  begin
     id 19
     name lradius
     direction 1 -4.48969e-011 3.86978e-028   
     length 3.31467   
     axis 180 -30 -90   XYZ
    dof rx
    limits (-10.0 170.0)
  end
  begin
     id 20
     name lwrist
     direction 1 -4.48963e-011 7.20928e-028   
     length 1.65734   
     axis -5.52449e-016 90 90   XYZ
    dof ry
    limits (-180.0 0.0)
 end
  begin
     id 21 
     name lhand
     direction 1 -4.48964e-011 1.44186e-027   
     length 0.9659   
     axis -9.20027e-016 90 90   XYZ
    dof rx rz
    limits (-90.0 90.0)
           (-45.0 45.0)
  end
  begin
     id 22 
     name lfingers
     direction 1 -4.48965e-011 2.88371e-027   
     length 0.778733   
     axis -1.84005e-015 90 90   XYZ
    dof rx
    limits (0.0 90.0)
  end
  begin
     id 23
     name lthumb
     direction 0.707107 -6.34931e-011 0.707107   
     length 1.11811   
     axis -90 45 2.85299e-015   XYZ
    dof rx rz
    limits (-45.0 45.0)
           (-45.0 45.0)
  end
  begin
     id 24 
     name rclavicle
     direction -0.923762 0.370785 0.0958234   
     length 3.54196  
     axis 0 0 0   XYZ 
    dof ry rz
    limits (-10.0 20.0)
           (-20.0 0.0)
  end
  begin
     id 25 
     name rhumerus
     direction -1 -4.48966e-011 1.18702e-017  
     length 5.30252   
     axis 180 30 90   XYZ
    dof rx ry rz
    limits (-90.0 60.0)
           (-90.0 90.0)
           (-90.0 90.0)
  end
  begin
     id 26 
     name rradius
     direction -1 -4.48966e-011 4.46736e-027   
     length 3.67875   
     axis 180 30 90   XYZ
    dof rx
    limits (-10.0 170.0)
  end
  begin
     id 27 
     name rwrist
     direction -1 -4.48966e-011 7.20928e-028   
     length 1.83937   
     axis -5.52449e-016 -90 -90   XYZ
    dof ry
    limits (-180.0 0.0)
  end
  begin
     id 28
     name rhand
     direction -1 -4.48973e-011 1.44186e-027   
     length 0.594811   
     axis -9.20027e-016 -90 -90   XYZ
    dof rx rz
    limits (-90.0 90.0)
           (-45.0 45.0)
  end
  begin
     id 29
     name rfingers
     direction -1 -4.48963e-011 2.88371e-027   
     length 0.479552   
     axis -1.84005e-015 -90 -90   XYZ
    dof rx
    limits (0.0 90.0)
  end
  begin
     id 30
     name rthumb
     direction -0.707107 -6.34932e-011 0.707107   
     length 0.688544   
     axis -90 -45 -2.85299e-015   XYZ
    dof rx rz
    limits (-45.0 45.0)
           (-45.0 45.0)
  end
:hierarchy
  begin
    root lhipjoint rhipjoint lowerback
    lhipjoint lfemur
    lfemur ltibia
    ltibia lfoot
    lfoot ltoes
    rhipjoint rfemur
    rfemur rtibia
    rtibia rfoot
    rfoot rtoes
    lowerback upperback
    upperback thorax
    thorax lowerneck lclavicle rclavicle
    lowerneck upperneck
    upperneck head
    lclavicle lhumerus
    lhumerus lradius
    lradius lwrist
    lwrist lhand lthumb
    lhand lfingers
    rclavicle rhumerus
    rhumerus rradius
    rradius rwrist
    rwrist rhand rthumb
    rhand rfingers
  end

#!OML:ASF E:\acrobat2\Project_11_07_03\Capture day 1\Session 1\Acrobat.ASF
:FULLY-SPECIFIED
:DEGREES
316
root 10.9241 5.06518 10.8809 -100.08 -3.27985 -0.466848
lowerback 17.4393 0.674782 3.48495
upperback 0.715846 1.31292 -3.24613
thorax -8.87317 0.421466 -5.85388
lowerneck -2.18164 0.22318 -1.20543
upperneck -1.00269 0.331841 11.2623
head 0.0427398 0.205102 3.87252
rclavicle -7.95139e-015 -1.635e-014
rhumerus -45.3373 -18.8602 -35.4504
rradius 115.572
rwrist -27.0903
rhand -30.7597 -47.8815
rfingers 7.12502
rthumb -4.05105 282.177
lclavicle -7.95139e-015 -1.635e-014
lhumerus -28.1174 49.5881 17.371
lradius 102.509
lwrist 39.4231
lhand -32.8287 -13.4721
lfingers 7.12502
lthumb -6.04887 16.4215
rfemur 16.1159 1.38428 6.01466
rtibia -1.66979e-014
rfoot -24.0708 -23.3598
rtoes 44.9328
lfemur 2.47826 -1.60938 1.66811
ltibia 23.6173
lfoot -10.5479 10.8933
ltoes 32.7789
317
root 10.9237 5.06576 10.8749 -100.078 -3.27629 -0.513545
lowerback 17.4359 0.669755 3.45509
upperback 0.727625 1.30272 -3.21786
thorax -8.86081 0.419109 -5.80231
lowerneck -2.4632 0.25164 -1.33585
upperneck -0.705866 0.338866 11.4439
head 0.187034 0.228377 3.96457
rclavicle -1.59028e-014 2.84759e-014
rhumerus -45.2712 -18.8231 -35.4179
rradius 115.574
rwrist -27.1356
rhand -30.5777 -48.0228
rfingers 7.12502
rthumb -3.87534 282.033
lclavicle -1.59028e-014 2.84759e-014
lhumerus -28.1182 49.7209 17.3548
lradius 102.503
lwrist 39.4862
lhand -32.9306 -13.3307
lfingers 7.12502
lthumb -6.14719 16.5601
rfemur 16.1399 1.34188 5.99817
rtibia -4.77083e-014
rfoot -24.1348 -23.3301
rtoes 45.1212
lfemur 2.45865 -1.6138 1.66816
ltibia 23.5952
lfoot -10.4091 11.0196
ltoes 31.3558
318
root 10.925 5.06365 10.8819 -99.8593 -3.24779 -0.559131
lowerback 17.2159 0.667469 3.38558
upperback 0.687453 1.28061 -3.21179
thorax -8.7863 0.412954 -5.7421
lowerneck -2.64717 0.2505 -1.28818
upperneck -0.555492 0.318091 11.4064
head 0.269354 0.22841 3.94312
rclavicle -5.56597e-015 3.39052e-014
rhumerus -45.1841 -18.8138 -35.4308
rradius 115.597
rwrist -27.1655
rhand -30.6412 -48.0064
rfingers 7.12502
rthumb -3.93669 282.05
lclavicle -5.56597e-015 3.39052e-014
lhumerus -28.2846 49.9617 17.2434
lradius 102.539
lwrist 39.545
lhand -32.595 -13.2853
lfingers 7.12502
lthumb -5.82323 16.6146
rfemur 15.9311 1.25707 5.92409
rtibia -6.20208e-014
rfoot -24.1694 -23.3128
rtoes 45.2678
lfemur 2.21798 -2.07373 1.59192
ltibia 23.526
lfoot -10.0668 10.7615
ltoes 33.224
319
root 10.9254 5.06558 10.8805 -99.9982 -3.37902 -0.539373
lowerback 17.3343 0.642489 3.49304
upperback 0.74468 1.27643 -3.16213
thorax -8.78895 0.408839 -5.7514
lowerneck -2.72631 0.231249 -1.17961
upperneck -0.54975 0.287651 11.2662
head 0.287238 0.214703 3.87217
rclavicle -3.33958e-014 3.67503e-014
rhumerus -45.1216 -18.8157 -35.4407
rradius 115.64
rwrist -27.204
rhand -30.5654 -47.9317
rfingers 7.12502
rthumb -3.86345 282.124
lclavicle -3.33958e-014 3.67503e-014
lhumerus -28.4866 50.1914 17.1093
lradius 102.613
lwrist 39.5637
lhand -32.6775 -12.9314
lfingers 7.12502
lthumb -5.90286 16.9664
rfemur 16.078 1.28188 6.0892
rtibia -6.36111e-015
rfoot -24.0863 -23.366
rtoes 45.1382
lfemur 2.39176 -1.86256 1.78538
ltibia 23.5222
lfoot -10.9668 10.8626
ltoes 33.7584
320
root 10.9268 5.06528 10.8839 -99.9108 -3.37103 -0.554234
lowerback 17.2126 0.643092 3.46277
upperback 0.754997 1.27003 -3.14375
thorax -8.71143 0.41025 -5.7066
lowerneck -2.98352 0.265934 -1.04036
upperneck -0.347576 0.306382 11.1123
head 0.395951 0.237276 3.79311
rclavicle 1.90833e-014 -2.91468e-014
rhumerus -45.0527 -18.8126 -35.4344
rradius 115.67
rwrist -27.1846
rhand -30.425 -48.0094
rfingers 7.12502
rthumb -3.72784 282.043
lclavicle 1.90833e-014 -2.91468e-014
lhumerus -28.5766 50.3627 17.048
lradius 102.659
lwrist 39.6104
lhand -33.2725 -12.6721
lfingers 7.12502
lthumb -6.47726 17.2089
rfemur 15.9806 1.24835 6.07425
rtibia -7.95139e-016
rfoot -24.0284 -23.4223
rtoes 44.9927
lfemur 2.28839 -1.84637 1.76625
ltibia 23.4584
lfoot -11.034 10.9282
ltoes 34.1388
321
root 10.9267 5.06583 10.8812 -99.922 -3.38298 -0.573721
lowerback 17.2002 0.638449 3.4539
upperback 0.779862 1.2639 -3.12236
thorax -8.67858 0.409776 -5.67503
lowerneck -3.27389 0.310798 -0.934056
upperneck -0.0604033 0.330403 11.0202
head 0.537451 0.266795 3.74395
rclavicle 2.38542e-015 -3.62285e-014
rhumerus -44.9878 -18.7656 -35.4607
rradius 115.684
rwrist -27.1551
rhand -30.5348 -48.1931
rfingers 7.12502
rthumb -3.83395 281.862
lclavicle 2.38542e-015 -3.62285e-014
lhumerus -28.6117 50.4874 16.9812
lradius 102.663
lwrist 39.7732
lhand -33.6281 -12.8801
lfingers 7.12502
lthumb -6.82056 16.99
rfemur 15.9978 1.23005 6.08658
rtibia 2.46493e-014
rfoot -24.0312 -23.4211
rtoes 44.9217
lfemur 2.31876 -1.83906 1.77689
ltibia 23.4925
lfoot -11.0611 10.8576
ltoes 34.0719
322
root 10.9269 5.06514 10.8842 -99.9385 -3.3994 -0.591484
lowerback 17.2461 0.617845 3.44443
upperback 0.777365 1.23643 -3.10883
thorax -8.71078 0.395889 -5.65006
lowerneck -3.35337 0.302069 -0.921126
upperneck 0.0253306 0.308736 10.9869
head 0.580372 0.26088 3.73056
rclavicle 1.59028e-015 -3.44519e-014
rhumerus -44.9069 -18.6797 -35.5313
rradius 115.691
rwrist -27.1947
rhand -30.7606 -48.1607
rfingers 7.12502
rthumb -4.05199 281.898
lclavicle 1.59028e-015 -3.44519e-014
lhumerus -28.7664 50.617 16.8148
lradius 102.719
lwrist 39.9681
lhand -33.5775 -12.7731
lfingers 7.12502
lthumb -6.77172 17.0986
rfemur 16.0178 1.21513 6.09694
rtibia 2.70347e-014
rfoot -24.0698 -23.4185
rtoes 44.9389
lfemur 2.3107 -1.89716 1.78625
ltibia 23.4351
lfoot -11.0759 10.9477
ltoes 33.9604
323
root 10.9259 5.0639 10.8789 -99.7179 -3.30912 -0.643397
lowerback 17.056 0.629897 3.3223
upperback 0.708073 1.22096 -3.13324
thorax -8.68438 0.392056 -5.59729
lowerneck -3.29324 0.239521 -0.901069
upperneck -0.049311 0.23356 10.8906
head 0.55052 0.218133 3.69066
rclavicle -2.8625e-014 -3.69367e-014
rhumerus -44.9028 -18.6623 -35.566
rradius 115.738
rwrist -27.2023
rhand -30.885 -48.1194
rfingers 7.12502
rthumb -4.17206 281.942
lclavicle -2.8625e-014 -3.69367e-014
lhumerus -28.8271 50.7533 16.7213
lradius 102.782
lwrist 39.997
lhand -33.506 -12.2811
lfingers 7.12502
lthumb -6.70265 17.5928
rfemur 15.7973 1.13016 5.98172
rtibia 6.20208e-014
rfoot -24.146 -23.3721
rtoes 45.0084
lfemur 2.10859 -1.99837 1.66083
ltibia 23.4368
lfoot -9.41369 10.879
ltoes 31.8957
324
root 10.9272 5.06271 10.8826 -99.7274 -3.33137 -0.642807
lowerback 17.0816 0.662706 3.42921
upperback 0.70773 1.28567 -3.15008
thorax -8.68871 0.418832 -5.69408
lowerneck -3.45104 0.182277 -1.08421
upperneck 0.120316 0.141973 11.0928
head 0.640172 0.18479 3.79847
rclavicle 8.74653e-015 4.50993e-015
rhumerus -45.0294 -18.7464 -35.5019
rradius 115.812
rwrist -27.1502
rhand -31.0499 -48.1127
rfingers 7.12502
rthumb -4.33128 281.952
lclavicle 8.74653e-015 4.50993e-015
lhumerus -28.4122 50.8714 16.968
lradius 102.712
lwrist 39.8083
lhand -33.1814 -12.5339
lfingers 7.12502
lthumb -6.3893 17.3497
rfemur 15.8078 1.13052 5.99791
rtibia -6.75868e-014
rfoot -24.1541 -23.3438
rtoes 44.9864
lfemur 2.13171 -2.13536 1.67339
ltibia 23.4022
lfoot -9.75416 10.7895
ltoes 32.9659
325
root 10.9283 5.06351 10.8867 -99.9873 -3.47476 -0.608965
lowerback 17.3205 0.645768 3.61154
upperback 0.803579 1.30993 -3.10921
thorax -8.71105 0.425667 -5.76692
lowerneck -3.52413 0.118675 -1.2212
upperneck 0.109227 0.0604784 11.1675
head 0.655961 0.146461 3.85069
rclavicle -1.03368e-014 2.57426e-014
rhumerus -45.0008 -18.8083 -35.4911
rradius 115.854
rwrist -27.1211
rhand -31.2267 -47.9946
rfingers 7.12502
rthumb -4.50202 282.073
lclavicle -1.03368e-014 2.57426e-014
lhumerus -28.2229 51.0284 17.0791
lradius 102.677
lwrist 39.7671
lhand -32.159 -13.9635
lfingers 7.12502
lthumb -5.40223 15.9476
rfemur 16.0793 1.19802 6.16858
rtibia 1.74931e-014
rfoot -24.1289 -23.3379
rtoes 44.9627
lfemur 2.39533 -2.01562 1.86799
ltibia 23.4121
lfoot -11.3967 10.816
ltoes 34.7106
